<svg xmlns="http://www.w3.org/2000/svg" viewBox="0 0 756 574" width="756" height="574">
  <defs>
    <linearGradient id="ls_bg" x1="0" y1="0" x2="0" y2="1">
      <stop offset="0" stop-color="#19212d"/>
      <stop offset="1" stop-color="#0b0f15"/>
    </linearGradient>
    <radialGradient id="ls_phos" cx="0.52" cy="0.52" r="0.6">
      <stop offset="0" stop-color="#43e08b" stop-opacity="0.16"/>
      <stop offset="1" stop-color="#43e08b" stop-opacity="0"/>
    </radialGradient>
    <clipPath id="ls_clip"><rect x="0" y="0" width="512" height="512" rx="104"/></clipPath></defs>
  <g transform="translate(228.0,56) scale(0.58594)"><rect x="0" y="0" width="512" height="512" rx="104" fill="url(#ls_bg)"/><g clip-path="url(#ls_clip)"><line x1="0" y1="0" x2="512" y2="0" stroke="#ffffff" stroke-width="1" opacity="0.025"/><line x1="0" y1="7" x2="512" y2="7" stroke="#ffffff" stroke-width="1" opacity="0.025"/><line x1="0" y1="14" x2="512" y2="14" stroke="#ffffff" stroke-width="1" opacity="0.025"/><line x1="0" y1="21" x2="512" y2="21" stroke="#ffffff" stroke-width="1" opacity="0.025"/><line x1="0" y1="28" x2="512" y2="28" stroke="#ffffff" stroke-width="1" opacity="0.025"/><line x1="0" y1="35" x2="512" y2="35" stroke="#ffffff" stroke-width="1" opacity="0.025"/><line x1="0" y1="42" x2="512" y2="42" stroke="#ffffff" stroke-width="1" opacity="0.025"/><line x1="0" y1="49" x2="512" y2="49" stroke="#ffffff" stroke-width="1" opacity="0.025"/><line x1="0" y1="56" x2="512" y2="56" stroke="#ffffff" stroke-width="1" opacity="0.025"/><line x1="0" y1="63" x2="512" y2="63" stroke="#ffffff" stroke-width="1" opacity="0.025"/><line x1="0" y1="70" x2="512" y2="70" stroke="#ffffff" stroke-width="1" opacity="0.025"/><line x1="0" y1="77" x2="512" y2="77" stroke="#ffffff" stroke-width="1" opacity="0.025"/><line x1="0" y1="84" x2="512" y2="84" stroke="#ffffff" stroke-width="1" opacity="0.025"/><line x1="0" y1="91" x2="512" y2="91" stroke="#ffffff" stroke-width="1" opacity="0.025"/><line x1="0" y1="98" x2="512" y2="98" stroke="#ffffff" stroke-width="1" opacity="0.025"/><line x1="0" y1="105" x2="512" y2="105" stroke="#ffffff" stroke-width="1" opacity="0.025"/><line x1="0" y1="112" x2="512" y2="112" stroke="#ffffff" stroke-width="1" opacity="0.025"/><line x1="0" y1="119" x2="512" y2="119" stroke="#ffffff" stroke-width="1" opacity="0.025"/><line x1="0" y1="126" x2="512" y2="126" stroke="#ffffff" stroke-width="1" opacity="0.025"/><line x1="0" y1="133" x2="512" y2="133" stroke="#ffffff" stroke-width="1" opacity="0.025"/><line x1="0" y1="140" x2="512" y2="140" stroke="#ffffff" stroke-width="1" opacity="0.025"/><line x1="0" y1="147" x2="512" y2="147" stroke="#ffffff" stroke-width="1" opacity="0.025"/><line x1="0" y1="154" x2="512" y2="154" stroke="#ffffff" stroke-width="1" opacity="0.025"/><line x1="0" y1="161" x2="512" y2="161" stroke="#ffffff" stroke-width="1" opacity="0.025"/><line x1="0" y1="168" x2="512" y2="168" stroke="#ffffff" stroke-width="1" opacity="0.025"/><line x1="0" y1="175" x2="512" y2="175" stroke="#ffffff" stroke-width="1" opacity="0.025"/><line x1="0" y1="182" x2="512" y2="182" stroke="#ffffff" stroke-width="1" opacity="0.025"/><line x1="0" y1="189" x2="512" y2="189" stroke="#ffffff" stroke-width="1" opacity="0.025"/><line x1="0" y1="196" x2="512" y2="196" stroke="#ffffff" stroke-width="1" opacity="0.025"/><line x1="0" y1="203" x2="512" y2="203" stroke="#ffffff" stroke-width="1" opacity="0.025"/><line x1="0" y1="210" x2="512" y2="210" stroke="#ffffff" stroke-width="1" opacity="0.025"/><line x1="0" y1="217" x2="512" y2="217" stroke="#ffffff" stroke-width="1" opacity="0.025"/><line x1="0" y1="224" x2="512" y2="224" stroke="#ffffff" stroke-width="1" opacity="0.025"/><line x1="0" y1="231" x2="512" y2="231" stroke="#ffffff" stroke-width="1" opacity="0.025"/><line x1="0" y1="238" x2="512" y2="238" stroke="#ffffff" stroke-width="1" opacity="0.025"/><line x1="0" y1="245" x2="512" y2="245" stroke="#ffffff" stroke-width="1" opacity="0.025"/><line x1="0" y1="252" x2="512" y2="252" stroke="#ffffff" stroke-width="1" opacity="0.025"/><line x1="0" y1="259" x2="512" y2="259" stroke="#ffffff" stroke-width="1" opacity="0.025"/><line x1="0" y1="266" x2="512" y2="266" stroke="#ffffff" stroke-width="1" opacity="0.025"/><line x1="0" y1="273" x2="512" y2="273" stroke="#ffffff" stroke-width="1" opacity="0.025"/><line x1="0" y1="280" x2="512" y2="280" stroke="#ffffff" stroke-width="1" opacity="0.025"/><line x1="0" y1="287" x2="512" y2="287" stroke="#ffffff" stroke-width="1" opacity="0.025"/><line x1="0" y1="294" x2="512" y2="294" stroke="#ffffff" stroke-width="1" opacity="0.025"/><line x1="0" y1="301" x2="512" y2="301" stroke="#ffffff" stroke-width="1" opacity="0.025"/><line x1="0" y1="308" x2="512" y2="308" stroke="#ffffff" stroke-width="1" opacity="0.025"/><line x1="0" y1="315" x2="512" y2="315" stroke="#ffffff" stroke-width="1" opacity="0.025"/><line x1="0" y1="322" x2="512" y2="322" stroke="#ffffff" stroke-width="1" opacity="0.025"/><line x1="0" y1="329" x2="512" y2="329" stroke="#ffffff" stroke-width="1" opacity="0.025"/><line x1="0" y1="336" x2="512" y2="336" stroke="#ffffff" stroke-width="1" opacity="0.025"/><line x1="0" y1="343" x2="512" y2="343" stroke="#ffffff" stroke-width="1" opacity="0.025"/><line x1="0" y1="350" x2="512" y2="350" stroke="#ffffff" stroke-width="1" opacity="0.025"/><line x1="0" y1="357" x2="512" y2="357" stroke="#ffffff" stroke-width="1" opacity="0.025"/><line x1="0" y1="364" x2="512" y2="364" stroke="#ffffff" stroke-width="1" opacity="0.025"/><line x1="0" y1="371" x2="512" y2="371" stroke="#ffffff" stroke-width="1" opacity="0.025"/><line x1="0" y1="378" x2="512" y2="378" stroke="#ffffff" stroke-width="1" opacity="0.025"/><line x1="0" y1="385" x2="512" y2="385" stroke="#ffffff" stroke-width="1" opacity="0.025"/><line x1="0" y1="392" x2="512" y2="392" stroke="#ffffff" stroke-width="1" opacity="0.025"/><line x1="0" y1="399" x2="512" y2="399" stroke="#ffffff" stroke-width="1" opacity="0.025"/><line x1="0" y1="406" x2="512" y2="406" stroke="#ffffff" stroke-width="1" opacity="0.025"/><line x1="0" y1="413" x2="512" y2="413" stroke="#ffffff" stroke-width="1" opacity="0.025"/><line x1="0" y1="420" x2="512" y2="420" stroke="#ffffff" stroke-width="1" opacity="0.025"/><line x1="0" y1="427" x2="512" y2="427" stroke="#ffffff" stroke-width="1" opacity="0.025"/><line x1="0" y1="434" x2="512" y2="434" stroke="#ffffff" stroke-width="1" opacity="0.025"/><line x1="0" y1="441" x2="512" y2="441" stroke="#ffffff" stroke-width="1" opacity="0.025"/><line x1="0" y1="448" x2="512" y2="448" stroke="#ffffff" stroke-width="1" opacity="0.025"/><line x1="0" y1="455" x2="512" y2="455" stroke="#ffffff" stroke-width="1" opacity="0.025"/><line x1="0" y1="462" x2="512" y2="462" stroke="#ffffff" stroke-width="1" opacity="0.025"/><line x1="0" y1="469" x2="512" y2="469" stroke="#ffffff" stroke-width="1" opacity="0.025"/><line x1="0" y1="476" x2="512" y2="476" stroke="#ffffff" stroke-width="1" opacity="0.025"/><line x1="0" y1="483" x2="512" y2="483" stroke="#ffffff" stroke-width="1" opacity="0.025"/><line x1="0" y1="490" x2="512" y2="490" stroke="#ffffff" stroke-width="1" opacity="0.025"/><line x1="0" y1="497" x2="512" y2="497" stroke="#ffffff" stroke-width="1" opacity="0.025"/><line x1="0" y1="504" x2="512" y2="504" stroke="#ffffff" stroke-width="1" opacity="0.025"/><line x1="0" y1="511" x2="512" y2="511" stroke="#ffffff" stroke-width="1" opacity="0.025"/></g><rect x="0" y="0" width="512" height="512" rx="104" fill="url(#ls_phos)"/><rect x="1.5" y="1.5" width="509" height="509" rx="103" fill="none" stroke="#ffffff" stroke-width="1.5" opacity="0.07"/><g><line x1="378" y1="252" x2="264" y2="150" stroke="#43e08b" stroke-width="9" stroke-linecap="round" opacity="0.5"/>
<line x1="264" y1="150" x2="150" y2="252" stroke="#43e08b" stroke-width="9" stroke-linecap="round" opacity="0.5"/>
<line x1="150" y1="252" x2="264" y2="280" stroke="#43e08b" stroke-width="9" stroke-linecap="round" opacity="0.5"/>
<line x1="264" y1="280" x2="378" y2="252" stroke="#43e08b" stroke-width="9" stroke-linecap="round" opacity="0.5"/>
<line x1="150" y1="252" x2="176" y2="364" stroke="#43e08b" stroke-width="9" stroke-linecap="round" opacity="0.5"/>
<line x1="176" y1="364" x2="270" y2="408" stroke="#43e08b" stroke-width="9" stroke-linecap="round" opacity="0.5"/>
<line x1="270" y1="408" x2="366" y2="356" stroke="#43e08b" stroke-width="9" stroke-linecap="round" opacity="0.5"/><circle cx="264" cy="150" r="23" fill="#43e08b" opacity="0.18"/>
<circle cx="264" cy="150" r="19" fill="#e3f3ea"/>
<circle cx="264" cy="150" r="19" fill="none" stroke="#43e08b" stroke-width="2.5" opacity="0.9"/>
<circle cx="150" cy="252" r="23" fill="#43e08b" opacity="0.18"/>
<circle cx="150" cy="252" r="19" fill="#e3f3ea"/>
<circle cx="150" cy="252" r="19" fill="none" stroke="#43e08b" stroke-width="2.5" opacity="0.9"/>
<circle cx="378" cy="252" r="23" fill="#43e08b" opacity="0.18"/>
<circle cx="378" cy="252" r="19" fill="#e3f3ea"/>
<circle cx="378" cy="252" r="19" fill="none" stroke="#43e08b" stroke-width="2.5" opacity="0.9"/>
<circle cx="176" cy="364" r="23" fill="#5cc7f5" opacity="0.18"/>
<circle cx="176" cy="364" r="19" fill="#5cc7f5"/>
<circle cx="176" cy="364" r="19" fill="none" stroke="#5cc7f5" stroke-width="2.5" opacity="0.9"/>
<circle cx="270" cy="408" r="23" fill="#f07cc0" opacity="0.18"/>
<circle cx="270" cy="408" r="19" fill="#f07cc0"/>
<circle cx="270" cy="408" r="19" fill="none" stroke="#f07cc0" stroke-width="2.5" opacity="0.9"/>
<circle cx="366" cy="356" r="24" fill="#f5b657" opacity="0.18"/>
<circle cx="366" cy="356" r="20" fill="#f5b657"/>
<circle cx="366" cy="356" r="20" fill="none" stroke="#f5b657" stroke-width="2.5" opacity="0.9"/><rect x="222.0" y="234.0" width="84" height="92" rx="33" fill="#43e08b" opacity="0.1"/>
<rect x="231.0" y="243.0" width="66" height="74" rx="24" fill="#43e08b" opacity="0.16"/>
<rect x="238.0" y="250.0" width="52" height="60" rx="17" fill="#43e08b" opacity="0.22"/>
<rect x="248.0" y="260.0" width="32" height="40" rx="7" fill="#43e08b"/>
<rect x="248.0" y="260.0" width="32" height="40" rx="7" fill="none" stroke="#bff7d8" stroke-width="2" opacity="0.55"/></g></g>
  <path d="M101.14,517.00Q90.64,517.00 82.84,512.95Q75.05,508.89 70.77,501.48Q66.50,494.05 66.50,484.00L66.50,464.50Q66.50,454.45 70.77,447.04Q75.05,439.61 82.84,435.55Q90.64,431.50 101.14,431.50Q111.50,431.50 119.21,435.55Q126.95,439.61 131.21,446.88Q135.50,454.14 135.50,463.89L135.50,478.89L84.50,478.89L84.50,484.61Q84.50,493.00 88.84,497.29Q93.20,501.55 101.14,501.55Q107.00,501.55 111.12,499.54Q115.25,497.50 116.00,493.61L134.61,493.61Q132.64,504.25 123.50,510.62Q114.36,517.00 101.14,517.00ZM84.50,463.89L84.50,466.75L117.50,466.61L117.50,463.75Q117.50,455.20 113.30,450.55Q109.11,445.89 101.14,445.89Q92.89,445.89 88.70,450.62Q84.50,455.36 84.50,463.89ZM157.55,515.50L157.55,433.00L175.86,433.00L175.86,448.45Q177.36,440.64 183.20,436.07Q189.05,431.50 198.05,431.50Q210.20,431.50 217.46,439.61Q224.75,447.70 224.75,461.36L224.75,515.50L206.00,515.50L206.00,463.61Q206.00,455.95 202.02,451.82Q198.05,447.70 191.30,447.70Q184.25,447.70 180.27,451.91Q176.30,456.11 176.30,463.89L176.30,515.50L157.55,515.50ZM258.80,542.50L258.80,526.89L282.05,526.89Q288.64,526.89 292.25,523.38Q295.86,519.86 295.86,513.86L295.86,508.89L296.14,496.00Q293.61,502.89 287.98,506.73Q282.36,510.55 274.25,510.55Q261.64,510.55 254.21,502.09Q246.80,493.61 246.80,479.05L246.80,463.00Q246.80,448.61 254.21,440.05Q261.64,431.50 274.25,431.50Q282.36,431.50 287.98,435.32Q293.61,439.14 296.14,446.20L296.14,433.00L314.45,433.00L314.45,514.30Q314.45,527.36 305.82,534.93Q297.20,542.50 282.36,542.50L258.80,542.50ZM280.55,494.50Q287.75,494.50 291.71,490.23Q295.70,485.95 295.70,478.30L295.70,463.89Q295.70,456.25 291.71,451.98Q287.75,447.70 280.55,447.70Q273.36,447.70 269.45,451.82Q265.55,455.95 265.55,463.30L265.55,478.89Q265.55,486.25 269.45,490.38Q273.36,494.50 280.55,494.50ZM340.55,515.50L340.55,433.00L358.86,433.00L358.86,449.05Q360.36,440.95 366.27,436.23Q372.20,431.50 381.64,431.50Q394.25,431.50 401.30,439.61Q408.36,447.70 408.36,462.25L408.36,470.05L389.61,470.05L389.61,463.14Q389.61,455.64 385.70,451.68Q381.80,447.70 374.61,447.70Q367.11,447.70 363.20,452.20Q359.30,456.70 359.30,464.95L359.30,515.50L340.55,515.50ZM451.86,517.00Q439.25,517.00 431.96,509.88Q424.70,502.75 424.70,491.20Q424.70,479.20 432.95,472.07Q441.20,464.95 455.61,464.95L475.70,464.95L475.70,459.11Q475.70,446.64 461.14,446.64Q454.55,446.64 450.64,449.20Q446.75,451.75 446.30,456.39L428.30,456.39Q428.89,445.30 437.66,438.41Q446.45,431.50 461.30,431.50Q477.05,431.50 485.75,438.86Q494.45,446.20 494.45,459.55L494.45,515.50L476.14,515.50L476.14,500.05Q475.11,508.00 468.64,512.50Q462.20,517.00 451.86,517.00ZM457.86,501.70Q466.11,501.70 470.89,497.66Q475.70,493.61 475.70,486.86L475.70,477.11L456.50,477.11Q450.36,477.11 446.75,480.55Q443.14,484.00 443.14,489.39Q443.14,494.95 446.96,498.32Q450.80,501.70 457.86,501.70ZM513.05,515.50L513.05,433.00L528.64,433.00L528.64,445.00L529.11,445.00Q529.55,439.00 533.30,435.25Q537.05,431.50 542.75,431.50Q548.30,431.50 552.20,435.04Q556.11,438.55 557.45,444.55Q558.05,438.55 561.87,435.04Q565.70,431.50 571.55,431.50Q579.05,431.50 584.00,437.43Q588.95,443.36 588.95,452.64L588.95,515.50L572.45,515.50L572.45,454.00Q572.45,449.95 570.57,447.62Q568.70,445.30 565.25,445.30Q558.50,445.30 558.50,454.00L558.50,515.50L543.50,515.50L543.50,454.00Q543.50,449.95 541.77,447.62Q540.05,445.30 536.75,445.30Q529.55,445.30 529.55,454.00L529.55,515.50L513.05,515.50Z" fill="#0d1117"/>
  <rect x="612.9" y="406.0" width="87.0" height="111.7" rx="6" fill="#179a55"/>
</svg>