<svg xmlns="http://www.w3.org/2000/svg" viewBox="0 0 512 512" width="512" height="512">
  <defs>
    <linearGradient id="bg" x1="0" y1="0" x2="0" y2="1">
      <stop offset="0" stop-color="#19212d"/>
      <stop offset="1" stop-color="#0b0f15"/>
    </linearGradient>
    <radialGradient id="phos" cx="0.52" cy="0.52" r="0.6">
      <stop offset="0" stop-color="#43e08b" stop-opacity="0.16"/>
      <stop offset="1" stop-color="#43e08b" stop-opacity="0"/>
    </radialGradient>
    <clipPath id="clip"><rect x="0" y="0" width="512" height="512" rx="104"/></clipPath></defs>
  <rect x="0" y="0" width="512" height="512" rx="104" fill="url(#bg)"/><g clip-path="url(#clip)"><line x1="0" y1="0" x2="512" y2="0" stroke="#ffffff" stroke-width="1" opacity="0.025"/><line x1="0" y1="7" x2="512" y2="7" stroke="#ffffff" stroke-width="1" opacity="0.025"/><line x1="0" y1="14" x2="512" y2="14" stroke="#ffffff" stroke-width="1" opacity="0.025"/><line x1="0" y1="21" x2="512" y2="21" stroke="#ffffff" stroke-width="1" opacity="0.025"/><line x1="0" y1="28" x2="512" y2="28" stroke="#ffffff" stroke-width="1" opacity="0.025"/><line x1="0" y1="35" x2="512" y2="35" stroke="#ffffff" stroke-width="1" opacity="0.025"/><line x1="0" y1="42" x2="512" y2="42" stroke="#ffffff" stroke-width="1" opacity="0.025"/><line x1="0" y1="49" x2="512" y2="49" stroke="#ffffff" stroke-width="1" opacity="0.025"/><line x1="0" y1="56" x2="512" y2="56" stroke="#ffffff" stroke-width="1" opacity="0.025"/><line x1="0" y1="63" x2="512" y2="63" stroke="#ffffff" stroke-width="1" opacity="0.025"/><line x1="0" y1="70" x2="512" y2="70" stroke="#ffffff" stroke-width="1" opacity="0.025"/><line x1="0" y1="77" x2="512" y2="77" stroke="#ffffff" stroke-width="1" opacity="0.025"/><line x1="0" y1="84" x2="512" y2="84" stroke="#ffffff" stroke-width="1" opacity="0.025"/><line x1="0" y1="91" x2="512" y2="91" stroke="#ffffff" stroke-width="1" opacity="0.025"/><line x1="0" y1="98" x2="512" y2="98" stroke="#ffffff" stroke-width="1" opacity="0.025"/><line x1="0" y1="105" x2="512" y2="105" stroke="#ffffff" stroke-width="1" opacity="0.025"/><line x1="0" y1="112" x2="512" y2="112" stroke="#ffffff" stroke-width="1" opacity="0.025"/><line x1="0" y1="119" x2="512" y2="119" stroke="#ffffff" stroke-width="1" opacity="0.025"/><line x1="0" y1="126" x2="512" y2="126" stroke="#ffffff" stroke-width="1" opacity="0.025"/><line x1="0" y1="133" x2="512" y2="133" stroke="#ffffff" stroke-width="1" opacity="0.025"/><line x1="0" y1="140" x2="512" y2="140" stroke="#ffffff" stroke-width="1" opacity="0.025"/><line x1="0" y1="147" x2="512" y2="147" stroke="#ffffff" stroke-width="1" opacity="0.025"/><line x1="0" y1="154" x2="512" y2="154" stroke="#ffffff" stroke-width="1" opacity="0.025"/><line x1="0" y1="161" x2="512" y2="161" stroke="#ffffff" stroke-width="1" opacity="0.025"/><line x1="0" y1="168" x2="512" y2="168" stroke="#ffffff" stroke-width="1" opacity="0.025"/><line x1="0" y1="175" x2="512" y2="175" stroke="#ffffff" stroke-width="1" opacity="0.025"/><line x1="0" y1="182" x2="512" y2="182" stroke="#ffffff" stroke-width="1" opacity="0.025"/><line x1="0" y1="189" x2="512" y2="189" stroke="#ffffff" stroke-width="1" opacity="0.025"/><line x1="0" y1="196" x2="512" y2="196" stroke="#ffffff" stroke-width="1" opacity="0.025"/><line x1="0" y1="203" x2="512" y2="203" stroke="#ffffff" stroke-width="1" opacity="0.025"/><line x1="0" y1="210" x2="512" y2="210" stroke="#ffffff" stroke-width="1" opacity="0.025"/><line x1="0" y1="217" x2="512" y2="217" stroke="#ffffff" stroke-width="1" opacity="0.025"/><line x1="0" y1="224" x2="512" y2="224" stroke="#ffffff" stroke-width="1" opacity="0.025"/><line x1="0" y1="231" x2="512" y2="231" stroke="#ffffff" stroke-width="1" opacity="0.025"/><line x1="0" y1="238" x2="512" y2="238" stroke="#ffffff" stroke-width="1" opacity="0.025"/><line x1="0" y1="245" x2="512" y2="245" stroke="#ffffff" stroke-width="1" opacity="0.025"/><line x1="0" y1="252" x2="512" y2="252" stroke="#ffffff" stroke-width="1" opacity="0.025"/><line x1="0" y1="259" x2="512" y2="259" stroke="#ffffff" stroke-width="1" opacity="0.025"/><line x1="0" y1="266" x2="512" y2="266" stroke="#ffffff" stroke-width="1" opacity="0.025"/><line x1="0" y1="273" x2="512" y2="273" stroke="#ffffff" stroke-width="1" opacity="0.025"/><line x1="0" y1="280" x2="512" y2="280" stroke="#ffffff" stroke-width="1" opacity="0.025"/><line x1="0" y1="287" x2="512" y2="287" stroke="#ffffff" stroke-width="1" opacity="0.025"/><line x1="0" y1="294" x2="512" y2="294" stroke="#ffffff" stroke-width="1" opacity="0.025"/><line x1="0" y1="301" x2="512" y2="301" stroke="#ffffff" stroke-width="1" opacity="0.025"/><line x1="0" y1="308" x2="512" y2="308" stroke="#ffffff" stroke-width="1" opacity="0.025"/><line x1="0" y1="315" x2="512" y2="315" stroke="#ffffff" stroke-width="1" opacity="0.025"/><line x1="0" y1="322" x2="512" y2="322" stroke="#ffffff" stroke-width="1" opacity="0.025"/><line x1="0" y1="329" x2="512" y2="329" stroke="#ffffff" stroke-width="1" opacity="0.025"/><line x1="0" y1="336" x2="512" y2="336" stroke="#ffffff" stroke-width="1" opacity="0.025"/><line x1="0" y1="343" x2="512" y2="343" stroke="#ffffff" stroke-width="1" opacity="0.025"/><line x1="0" y1="350" x2="512" y2="350" stroke="#ffffff" stroke-width="1" opacity="0.025"/><line x1="0" y1="357" x2="512" y2="357" stroke="#ffffff" stroke-width="1" opacity="0.025"/><line x1="0" y1="364" x2="512" y2="364" stroke="#ffffff" stroke-width="1" opacity="0.025"/><line x1="0" y1="371" x2="512" y2="371" stroke="#ffffff" stroke-width="1" opacity="0.025"/><line x1="0" y1="378" x2="512" y2="378" stroke="#ffffff" stroke-width="1" opacity="0.025"/><line x1="0" y1="385" x2="512" y2="385" stroke="#ffffff" stroke-width="1" opacity="0.025"/><line x1="0" y1="392" x2="512" y2="392" stroke="#ffffff" stroke-width="1" opacity="0.025"/><line x1="0" y1="399" x2="512" y2="399" stroke="#ffffff" stroke-width="1" opacity="0.025"/><line x1="0" y1="406" x2="512" y2="406" stroke="#ffffff" stroke-width="1" opacity="0.025"/><line x1="0" y1="413" x2="512" y2="413" stroke="#ffffff" stroke-width="1" opacity="0.025"/><line x1="0" y1="420" x2="512" y2="420" stroke="#ffffff" stroke-width="1" opacity="0.025"/><line x1="0" y1="427" x2="512" y2="427" stroke="#ffffff" stroke-width="1" opacity="0.025"/><line x1="0" y1="434" x2="512" y2="434" stroke="#ffffff" stroke-width="1" opacity="0.025"/><line x1="0" y1="441" x2="512" y2="441" stroke="#ffffff" stroke-width="1" opacity="0.025"/><line x1="0" y1="448" x2="512" y2="448" stroke="#ffffff" stroke-width="1" opacity="0.025"/><line x1="0" y1="455" x2="512" y2="455" stroke="#ffffff" stroke-width="1" opacity="0.025"/><line x1="0" y1="462" x2="512" y2="462" stroke="#ffffff" stroke-width="1" opacity="0.025"/><line x1="0" y1="469" x2="512" y2="469" stroke="#ffffff" stroke-width="1" opacity="0.025"/><line x1="0" y1="476" x2="512" y2="476" stroke="#ffffff" stroke-width="1" opacity="0.025"/><line x1="0" y1="483" x2="512" y2="483" stroke="#ffffff" stroke-width="1" opacity="0.025"/><line x1="0" y1="490" x2="512" y2="490" stroke="#ffffff" stroke-width="1" opacity="0.025"/><line x1="0" y1="497" x2="512" y2="497" stroke="#ffffff" stroke-width="1" opacity="0.025"/><line x1="0" y1="504" x2="512" y2="504" stroke="#ffffff" stroke-width="1" opacity="0.025"/><line x1="0" y1="511" x2="512" y2="511" stroke="#ffffff" stroke-width="1" opacity="0.025"/></g><rect x="0" y="0" width="512" height="512" rx="104" fill="url(#phos)"/><rect x="1.5" y="1.5" width="509" height="509" rx="103" fill="none" stroke="#ffffff" stroke-width="1.5" opacity="0.07"/><g><line x1="378" y1="252" x2="264" y2="150" stroke="#43e08b" stroke-width="9" stroke-linecap="round" opacity="0.5"/>
<line x1="264" y1="150" x2="150" y2="252" stroke="#43e08b" stroke-width="9" stroke-linecap="round" opacity="0.5"/>
<line x1="150" y1="252" x2="264" y2="280" stroke="#43e08b" stroke-width="9" stroke-linecap="round" opacity="0.5"/>
<line x1="264" y1="280" x2="378" y2="252" stroke="#43e08b" stroke-width="9" stroke-linecap="round" opacity="0.5"/>
<line x1="150" y1="252" x2="176" y2="364" stroke="#43e08b" stroke-width="9" stroke-linecap="round" opacity="0.5"/>
<line x1="176" y1="364" x2="270" y2="408" stroke="#43e08b" stroke-width="9" stroke-linecap="round" opacity="0.5"/>
<line x1="270" y1="408" x2="366" y2="356" stroke="#43e08b" stroke-width="9" stroke-linecap="round" opacity="0.5"/><circle cx="264" cy="150" r="23" fill="#43e08b" opacity="0.18"/>
<circle cx="264" cy="150" r="19" fill="#e3f3ea"/>
<circle cx="264" cy="150" r="19" fill="none" stroke="#43e08b" stroke-width="2.5" opacity="0.9"/>
<circle cx="150" cy="252" r="23" fill="#43e08b" opacity="0.18"/>
<circle cx="150" cy="252" r="19" fill="#e3f3ea"/>
<circle cx="150" cy="252" r="19" fill="none" stroke="#43e08b" stroke-width="2.5" opacity="0.9"/>
<circle cx="378" cy="252" r="23" fill="#43e08b" opacity="0.18"/>
<circle cx="378" cy="252" r="19" fill="#e3f3ea"/>
<circle cx="378" cy="252" r="19" fill="none" stroke="#43e08b" stroke-width="2.5" opacity="0.9"/>
<circle cx="176" cy="364" r="23" fill="#5cc7f5" opacity="0.18"/>
<circle cx="176" cy="364" r="19" fill="#5cc7f5"/>
<circle cx="176" cy="364" r="19" fill="none" stroke="#5cc7f5" stroke-width="2.5" opacity="0.9"/>
<circle cx="270" cy="408" r="23" fill="#f07cc0" opacity="0.18"/>
<circle cx="270" cy="408" r="19" fill="#f07cc0"/>
<circle cx="270" cy="408" r="19" fill="none" stroke="#f07cc0" stroke-width="2.5" opacity="0.9"/>
<circle cx="366" cy="356" r="24" fill="#f5b657" opacity="0.18"/>
<circle cx="366" cy="356" r="20" fill="#f5b657"/>
<circle cx="366" cy="356" r="20" fill="none" stroke="#f5b657" stroke-width="2.5" opacity="0.9"/><rect x="222.0" y="234.0" width="84" height="92" rx="33" fill="#43e08b" opacity="0.1"/>
<rect x="231.0" y="243.0" width="66" height="74" rx="24" fill="#43e08b" opacity="0.16"/>
<rect x="238.0" y="250.0" width="52" height="60" rx="17" fill="#43e08b" opacity="0.22"/>
<rect x="248.0" y="260.0" width="32" height="40" rx="7" fill="#43e08b"/>
<rect x="248.0" y="260.0" width="32" height="40" rx="7" fill="none" stroke="#bff7d8" stroke-width="2" opacity="0.55"/></g>
</svg>