<svg xmlns="http://www.w3.org/2000/svg" viewBox="0 0 1024 241" width="1024" height="241">
  <rect x="0" y="0" width="1024" height="241" fill="none"/>
  <path d="M106.21,202.80Q90.81,202.80 79.36,196.85Q67.95,190.91 61.66,180.04Q55.40,169.15 55.40,154.40L55.40,125.80Q55.40,111.05 61.66,100.19Q67.95,89.29 79.36,83.35Q90.81,77.40 106.21,77.40Q121.40,77.40 132.71,83.35Q144.05,89.29 150.31,99.95Q156.60,110.61 156.60,124.91L156.60,146.91L81.80,146.91L81.80,155.29Q81.80,167.60 88.16,173.89Q94.55,180.15 106.21,180.15Q114.80,180.15 120.85,177.19Q126.90,174.20 128.00,168.49L155.29,168.49Q152.41,184.10 139.00,193.45Q125.59,202.80 106.21,202.80ZM81.80,124.91L81.80,129.10L130.20,128.89L130.20,124.70Q130.20,112.15 124.05,105.35Q117.89,98.51 106.21,98.51Q94.11,98.51 87.95,105.45Q81.80,112.39 81.80,124.91ZM188.95,200.60L188.95,79.60L215.79,79.60L215.79,102.25Q217.99,90.81 226.55,84.10Q235.15,77.40 248.35,77.40Q266.15,77.40 276.81,89.29Q287.50,101.15 287.50,121.19L287.50,200.60L260.00,200.60L260.00,124.49Q260.00,113.25 254.16,107.20Q248.35,101.15 238.45,101.15Q228.10,101.15 222.26,107.34Q216.45,113.49 216.45,124.91L216.45,200.60L188.95,200.60ZM337.45,240.20L337.45,217.31L371.55,217.31Q381.21,217.31 386.50,212.15Q391.79,206.99 391.79,198.19L391.79,190.91L392.21,172.00Q388.49,182.11 380.24,187.74Q371.99,193.35 360.10,193.35Q341.61,193.35 330.71,180.94Q319.85,168.49 319.85,147.15L319.85,123.60Q319.85,102.49 330.71,89.95Q341.61,77.40 360.10,77.40Q371.99,77.40 380.24,83.00Q388.49,88.61 392.21,98.95L392.21,79.60L419.05,79.60L419.05,198.85Q419.05,217.99 406.40,229.10Q393.75,240.20 371.99,240.20L337.45,240.20ZM369.35,169.80Q379.90,169.80 385.71,163.54Q391.55,157.25 391.55,146.05L391.55,124.91Q391.55,113.70 385.71,107.44Q379.90,101.15 369.35,101.15Q358.79,101.15 353.05,107.20Q347.35,113.25 347.35,124.05L347.35,146.91Q347.35,157.70 353.05,163.75Q358.79,169.80 369.35,169.80ZM457.35,200.60L457.35,79.60L484.19,79.60L484.19,103.15Q486.39,91.25 495.06,84.34Q503.75,77.40 517.61,77.40Q536.10,77.40 546.45,89.29Q556.79,101.15 556.79,122.50L556.79,133.95L529.29,133.95L529.29,123.81Q529.29,112.81 523.55,107.00Q517.85,101.15 507.29,101.15Q496.29,101.15 490.55,107.75Q484.85,114.35 484.85,126.45L484.85,200.60L457.35,200.60ZM620.59,202.80Q602.10,202.80 591.41,192.35Q580.75,181.90 580.75,164.95Q580.75,147.35 592.85,136.90Q604.95,126.45 626.09,126.45L655.55,126.45L655.55,117.89Q655.55,99.61 634.21,99.61Q624.55,99.61 618.81,103.35Q613.10,107.10 612.45,113.91L586.05,113.91Q586.91,97.65 599.76,87.54Q612.65,77.40 634.45,77.40Q657.55,77.40 670.30,88.19Q683.05,98.95 683.05,118.55L683.05,200.60L656.21,200.60L656.21,177.95Q654.69,189.60 645.21,196.20Q635.75,202.80 620.59,202.80ZM629.39,180.35Q641.49,180.35 648.51,174.44Q655.55,168.49 655.55,158.59L655.55,144.29L627.40,144.29Q618.39,144.29 613.10,149.35Q607.81,154.40 607.81,162.31Q607.81,170.45 613.41,175.40Q619.05,180.35 629.39,180.35ZM710.35,200.60L710.35,79.60L733.21,79.60L733.21,97.20L733.89,97.20Q734.55,88.40 740.05,82.90Q745.55,77.40 753.90,77.40Q762.05,77.40 767.75,82.59Q773.49,87.75 775.45,96.55Q776.35,87.75 781.95,82.59Q787.55,77.40 796.15,77.40Q807.15,77.40 814.40,86.10Q821.65,94.79 821.65,108.41L821.65,200.60L797.45,200.60L797.45,110.40Q797.45,104.45 794.70,101.05Q791.95,97.65 786.90,97.65Q777.00,97.65 777.00,110.40L777.00,200.60L755.00,200.60L755.00,110.40Q755.00,104.45 752.46,101.05Q749.95,97.65 745.10,97.65Q734.55,97.65 734.55,110.40L734.55,200.60L710.35,200.60Z" fill="#eaf0f5"/>
  <rect x="856.9" y="36.8" width="127.6" height="163.8" rx="6" fill="#43e08b"/>
</svg>