<svg xmlns="http://www.w3.org/2000/svg" viewBox="0 0 1309 412" width="1309" height="412">
  <defs>
    <linearGradient id="lh_bg" x1="0" y1="0" x2="0" y2="1">
      <stop offset="0" stop-color="#19212d"/>
      <stop offset="1" stop-color="#0b0f15"/>
    </linearGradient>
    <radialGradient id="lh_phos" cx="0.52" cy="0.52" r="0.6">
      <stop offset="0" stop-color="#43e08b" stop-opacity="0.16"/>
      <stop offset="1" stop-color="#43e08b" stop-opacity="0"/>
    </radialGradient>
    <clipPath id="lh_clip"><rect x="0" y="0" width="512" height="512" rx="104"/></clipPath></defs>
  <g transform="translate(56,56) scale(0.58594)"><rect x="0" y="0" width="512" height="512" rx="104" fill="url(#lh_bg)"/><g clip-path="url(#lh_clip)"><line x1="0" y1="0" x2="512" y2="0" stroke="#ffffff" stroke-width="1" opacity="0.025"/><line x1="0" y1="7" x2="512" y2="7" stroke="#ffffff" stroke-width="1" opacity="0.025"/><line x1="0" y1="14" x2="512" y2="14" stroke="#ffffff" stroke-width="1" opacity="0.025"/><line x1="0" y1="21" x2="512" y2="21" stroke="#ffffff" stroke-width="1" opacity="0.025"/><line x1="0" y1="28" x2="512" y2="28" stroke="#ffffff" stroke-width="1" opacity="0.025"/><line x1="0" y1="35" x2="512" y2="35" stroke="#ffffff" stroke-width="1" opacity="0.025"/><line x1="0" y1="42" x2="512" y2="42" stroke="#ffffff" stroke-width="1" opacity="0.025"/><line x1="0" y1="49" x2="512" y2="49" stroke="#ffffff" stroke-width="1" opacity="0.025"/><line x1="0" y1="56" x2="512" y2="56" stroke="#ffffff" stroke-width="1" opacity="0.025"/><line x1="0" y1="63" x2="512" y2="63" stroke="#ffffff" stroke-width="1" opacity="0.025"/><line x1="0" y1="70" x2="512" y2="70" stroke="#ffffff" stroke-width="1" opacity="0.025"/><line x1="0" y1="77" x2="512" y2="77" stroke="#ffffff" stroke-width="1" opacity="0.025"/><line x1="0" y1="84" x2="512" y2="84" stroke="#ffffff" stroke-width="1" opacity="0.025"/><line x1="0" y1="91" x2="512" y2="91" stroke="#ffffff" stroke-width="1" opacity="0.025"/><line x1="0" y1="98" x2="512" y2="98" stroke="#ffffff" stroke-width="1" opacity="0.025"/><line x1="0" y1="105" x2="512" y2="105" stroke="#ffffff" stroke-width="1" opacity="0.025"/><line x1="0" y1="112" x2="512" y2="112" stroke="#ffffff" stroke-width="1" opacity="0.025"/><line x1="0" y1="119" x2="512" y2="119" stroke="#ffffff" stroke-width="1" opacity="0.025"/><line x1="0" y1="126" x2="512" y2="126" stroke="#ffffff" stroke-width="1" opacity="0.025"/><line x1="0" y1="133" x2="512" y2="133" stroke="#ffffff" stroke-width="1" opacity="0.025"/><line x1="0" y1="140" x2="512" y2="140" stroke="#ffffff" stroke-width="1" opacity="0.025"/><line x1="0" y1="147" x2="512" y2="147" stroke="#ffffff" stroke-width="1" opacity="0.025"/><line x1="0" y1="154" x2="512" y2="154" stroke="#ffffff" stroke-width="1" opacity="0.025"/><line x1="0" y1="161" x2="512" y2="161" stroke="#ffffff" stroke-width="1" opacity="0.025"/><line x1="0" y1="168" x2="512" y2="168" stroke="#ffffff" stroke-width="1" opacity="0.025"/><line x1="0" y1="175" x2="512" y2="175" stroke="#ffffff" stroke-width="1" opacity="0.025"/><line x1="0" y1="182" x2="512" y2="182" stroke="#ffffff" stroke-width="1" opacity="0.025"/><line x1="0" y1="189" x2="512" y2="189" stroke="#ffffff" stroke-width="1" opacity="0.025"/><line x1="0" y1="196" x2="512" y2="196" stroke="#ffffff" stroke-width="1" opacity="0.025"/><line x1="0" y1="203" x2="512" y2="203" stroke="#ffffff" stroke-width="1" opacity="0.025"/><line x1="0" y1="210" x2="512" y2="210" stroke="#ffffff" stroke-width="1" opacity="0.025"/><line x1="0" y1="217" x2="512" y2="217" stroke="#ffffff" stroke-width="1" opacity="0.025"/><line x1="0" y1="224" x2="512" y2="224" stroke="#ffffff" stroke-width="1" opacity="0.025"/><line x1="0" y1="231" x2="512" y2="231" stroke="#ffffff" stroke-width="1" opacity="0.025"/><line x1="0" y1="238" x2="512" y2="238" stroke="#ffffff" stroke-width="1" opacity="0.025"/><line x1="0" y1="245" x2="512" y2="245" stroke="#ffffff" stroke-width="1" opacity="0.025"/><line x1="0" y1="252" x2="512" y2="252" stroke="#ffffff" stroke-width="1" opacity="0.025"/><line x1="0" y1="259" x2="512" y2="259" stroke="#ffffff" stroke-width="1" opacity="0.025"/><line x1="0" y1="266" x2="512" y2="266" stroke="#ffffff" stroke-width="1" opacity="0.025"/><line x1="0" y1="273" x2="512" y2="273" stroke="#ffffff" stroke-width="1" opacity="0.025"/><line x1="0" y1="280" x2="512" y2="280" stroke="#ffffff" stroke-width="1" opacity="0.025"/><line x1="0" y1="287" x2="512" y2="287" stroke="#ffffff" stroke-width="1" opacity="0.025"/><line x1="0" y1="294" x2="512" y2="294" stroke="#ffffff" stroke-width="1" opacity="0.025"/><line x1="0" y1="301" x2="512" y2="301" stroke="#ffffff" stroke-width="1" opacity="0.025"/><line x1="0" y1="308" x2="512" y2="308" stroke="#ffffff" stroke-width="1" opacity="0.025"/><line x1="0" y1="315" x2="512" y2="315" stroke="#ffffff" stroke-width="1" opacity="0.025"/><line x1="0" y1="322" x2="512" y2="322" stroke="#ffffff" stroke-width="1" opacity="0.025"/><line x1="0" y1="329" x2="512" y2="329" stroke="#ffffff" stroke-width="1" opacity="0.025"/><line x1="0" y1="336" x2="512" y2="336" stroke="#ffffff" stroke-width="1" opacity="0.025"/><line x1="0" y1="343" x2="512" y2="343" stroke="#ffffff" stroke-width="1" opacity="0.025"/><line x1="0" y1="350" x2="512" y2="350" stroke="#ffffff" stroke-width="1" opacity="0.025"/><line x1="0" y1="357" x2="512" y2="357" stroke="#ffffff" stroke-width="1" opacity="0.025"/><line x1="0" y1="364" x2="512" y2="364" stroke="#ffffff" stroke-width="1" opacity="0.025"/><line x1="0" y1="371" x2="512" y2="371" stroke="#ffffff" stroke-width="1" opacity="0.025"/><line x1="0" y1="378" x2="512" y2="378" stroke="#ffffff" stroke-width="1" opacity="0.025"/><line x1="0" y1="385" x2="512" y2="385" stroke="#ffffff" stroke-width="1" opacity="0.025"/><line x1="0" y1="392" x2="512" y2="392" stroke="#ffffff" stroke-width="1" opacity="0.025"/><line x1="0" y1="399" x2="512" y2="399" stroke="#ffffff" stroke-width="1" opacity="0.025"/><line x1="0" y1="406" x2="512" y2="406" stroke="#ffffff" stroke-width="1" opacity="0.025"/><line x1="0" y1="413" x2="512" y2="413" stroke="#ffffff" stroke-width="1" opacity="0.025"/><line x1="0" y1="420" x2="512" y2="420" stroke="#ffffff" stroke-width="1" opacity="0.025"/><line x1="0" y1="427" x2="512" y2="427" stroke="#ffffff" stroke-width="1" opacity="0.025"/><line x1="0" y1="434" x2="512" y2="434" stroke="#ffffff" stroke-width="1" opacity="0.025"/><line x1="0" y1="441" x2="512" y2="441" stroke="#ffffff" stroke-width="1" opacity="0.025"/><line x1="0" y1="448" x2="512" y2="448" stroke="#ffffff" stroke-width="1" opacity="0.025"/><line x1="0" y1="455" x2="512" y2="455" stroke="#ffffff" stroke-width="1" opacity="0.025"/><line x1="0" y1="462" x2="512" y2="462" stroke="#ffffff" stroke-width="1" opacity="0.025"/><line x1="0" y1="469" x2="512" y2="469" stroke="#ffffff" stroke-width="1" opacity="0.025"/><line x1="0" y1="476" x2="512" y2="476" stroke="#ffffff" stroke-width="1" opacity="0.025"/><line x1="0" y1="483" x2="512" y2="483" stroke="#ffffff" stroke-width="1" opacity="0.025"/><line x1="0" y1="490" x2="512" y2="490" stroke="#ffffff" stroke-width="1" opacity="0.025"/><line x1="0" y1="497" x2="512" y2="497" stroke="#ffffff" stroke-width="1" opacity="0.025"/><line x1="0" y1="504" x2="512" y2="504" stroke="#ffffff" stroke-width="1" opacity="0.025"/><line x1="0" y1="511" x2="512" y2="511" stroke="#ffffff" stroke-width="1" opacity="0.025"/></g><rect x="0" y="0" width="512" height="512" rx="104" fill="url(#lh_phos)"/><rect x="1.5" y="1.5" width="509" height="509" rx="103" fill="none" stroke="#ffffff" stroke-width="1.5" opacity="0.07"/><g><line x1="378" y1="252" x2="264" y2="150" stroke="#43e08b" stroke-width="9" stroke-linecap="round" opacity="0.5"/>
<line x1="264" y1="150" x2="150" y2="252" stroke="#43e08b" stroke-width="9" stroke-linecap="round" opacity="0.5"/>
<line x1="150" y1="252" x2="264" y2="280" stroke="#43e08b" stroke-width="9" stroke-linecap="round" opacity="0.5"/>
<line x1="264" y1="280" x2="378" y2="252" stroke="#43e08b" stroke-width="9" stroke-linecap="round" opacity="0.5"/>
<line x1="150" y1="252" x2="176" y2="364" stroke="#43e08b" stroke-width="9" stroke-linecap="round" opacity="0.5"/>
<line x1="176" y1="364" x2="270" y2="408" stroke="#43e08b" stroke-width="9" stroke-linecap="round" opacity="0.5"/>
<line x1="270" y1="408" x2="366" y2="356" stroke="#43e08b" stroke-width="9" stroke-linecap="round" opacity="0.5"/><circle cx="264" cy="150" r="23" fill="#43e08b" opacity="0.18"/>
<circle cx="264" cy="150" r="19" fill="#e3f3ea"/>
<circle cx="264" cy="150" r="19" fill="none" stroke="#43e08b" stroke-width="2.5" opacity="0.9"/>
<circle cx="150" cy="252" r="23" fill="#43e08b" opacity="0.18"/>
<circle cx="150" cy="252" r="19" fill="#e3f3ea"/>
<circle cx="150" cy="252" r="19" fill="none" stroke="#43e08b" stroke-width="2.5" opacity="0.9"/>
<circle cx="378" cy="252" r="23" fill="#43e08b" opacity="0.18"/>
<circle cx="378" cy="252" r="19" fill="#e3f3ea"/>
<circle cx="378" cy="252" r="19" fill="none" stroke="#43e08b" stroke-width="2.5" opacity="0.9"/>
<circle cx="176" cy="364" r="23" fill="#5cc7f5" opacity="0.18"/>
<circle cx="176" cy="364" r="19" fill="#5cc7f5"/>
<circle cx="176" cy="364" r="19" fill="none" stroke="#5cc7f5" stroke-width="2.5" opacity="0.9"/>
<circle cx="270" cy="408" r="23" fill="#f07cc0" opacity="0.18"/>
<circle cx="270" cy="408" r="19" fill="#f07cc0"/>
<circle cx="270" cy="408" r="19" fill="none" stroke="#f07cc0" stroke-width="2.5" opacity="0.9"/>
<circle cx="366" cy="356" r="24" fill="#f5b657" opacity="0.18"/>
<circle cx="366" cy="356" r="20" fill="#f5b657"/>
<circle cx="366" cy="356" r="20" fill="none" stroke="#f5b657" stroke-width="2.5" opacity="0.9"/><rect x="222.0" y="234.0" width="84" height="92" rx="33" fill="#43e08b" opacity="0.1"/>
<rect x="231.0" y="243.0" width="66" height="74" rx="24" fill="#43e08b" opacity="0.16"/>
<rect x="238.0" y="250.0" width="52" height="60" rx="17" fill="#43e08b" opacity="0.22"/>
<rect x="248.0" y="260.0" width="32" height="40" rx="7" fill="#43e08b"/>
<rect x="248.0" y="260.0" width="32" height="40" rx="7" fill="none" stroke="#bff7d8" stroke-width="2" opacity="0.55"/></g></g>
  <path d="M470.98,279.50Q457.26,279.50 447.07,274.20Q436.90,268.90 431.29,259.23Q425.72,249.52 425.72,236.38L425.72,210.90Q425.72,197.76 431.29,188.08Q436.90,178.38 447.07,173.08Q457.26,167.78 470.98,167.78Q484.52,167.78 494.60,173.08Q504.70,178.38 510.28,187.87Q515.88,197.36 515.88,210.10L515.88,229.70L449.24,229.70L449.24,237.18Q449.24,248.14 454.91,253.74Q460.60,259.32 470.98,259.32Q478.64,259.32 484.03,256.68Q489.42,254.02 490.40,248.94L514.72,248.94Q512.14,262.84 500.20,271.17Q488.26,279.50 470.98,279.50ZM449.24,210.10L449.24,213.84L492.36,213.66L492.36,209.92Q492.36,198.74 486.88,192.68Q481.40,186.58 470.98,186.58Q460.20,186.58 454.72,192.77Q449.24,198.96 449.24,210.10ZM544.70,277.54L544.70,169.74L568.62,169.74L568.62,189.92Q570.58,179.72 578.20,173.75Q585.86,167.78 597.62,167.78Q613.48,167.78 622.98,178.38Q632.50,188.94 632.50,206.80L632.50,277.54L608.00,277.54L608.00,209.74Q608.00,199.72 602.79,194.33Q597.62,188.94 588.80,188.94Q579.58,188.94 574.37,194.45Q569.20,199.94 569.20,210.10L569.20,277.54L544.70,277.54ZM677.00,312.82L677.00,292.42L707.38,292.42Q715.98,292.42 720.70,287.83Q725.42,283.24 725.42,275.40L725.42,268.90L725.78,252.06Q722.48,261.06 715.13,266.09Q707.78,271.08 697.18,271.08Q680.70,271.08 671.00,260.02Q661.32,248.94 661.32,229.92L661.32,208.94Q661.32,190.14 671.00,178.96Q680.70,167.78 697.18,167.78Q707.78,167.78 715.13,172.77Q722.48,177.76 725.78,186.98L725.78,169.74L749.70,169.74L749.70,275.98Q749.70,293.04 738.43,302.93Q727.16,312.82 707.78,312.82L677.00,312.82ZM705.42,250.10Q714.82,250.10 720.00,244.53Q725.20,238.92 725.20,228.94L725.20,210.10Q725.20,200.12 720.00,194.55Q714.82,188.94 705.42,188.94Q696.02,188.94 690.90,194.33Q685.82,199.72 685.82,209.34L685.82,229.70Q685.82,239.32 690.90,244.71Q696.02,250.10 705.42,250.10ZM783.82,277.54L783.82,169.74L807.74,169.74L807.74,190.72Q809.70,180.12 817.41,173.97Q825.16,167.78 837.50,167.78Q853.98,167.78 863.20,178.38Q872.42,188.94 872.42,207.96L872.42,218.16L847.92,218.16L847.92,209.12Q847.92,199.32 842.80,194.15Q837.72,188.94 828.32,188.94Q818.52,188.94 813.40,194.82Q808.32,200.70 808.32,211.48L808.32,277.54L783.82,277.54ZM929.26,279.50Q912.78,279.50 903.26,270.19Q893.76,260.88 893.76,245.78Q893.76,230.10 904.54,220.79Q915.32,211.48 934.16,211.48L960.40,211.48L960.40,203.86Q960.40,187.56 941.38,187.56Q932.78,187.56 927.66,190.90Q922.58,194.24 922.00,200.30L898.48,200.30Q899.24,185.82 910.70,176.81Q922.18,167.78 941.60,167.78Q962.18,167.78 973.54,177.40Q984.90,186.98 984.90,204.44L984.90,277.54L960.98,277.54L960.98,257.36Q959.64,267.74 951.18,273.62Q942.76,279.50 929.26,279.50ZM937.10,259.50Q947.88,259.50 954.12,254.23Q960.40,248.94 960.40,240.12L960.40,227.38L935.32,227.38Q927.30,227.38 922.58,231.88Q917.86,236.38 917.86,243.42Q917.86,250.68 922.86,255.09Q927.88,259.50 937.10,259.50ZM1009.22,277.54L1009.22,169.74L1029.58,169.74L1029.58,185.42L1030.20,185.42Q1030.78,177.58 1035.68,172.68Q1040.58,167.78 1048.02,167.78Q1055.28,167.78 1060.36,172.40Q1065.48,177.00 1067.22,184.84Q1068.02,177.00 1073.01,172.40Q1078.00,167.78 1085.66,167.78Q1095.46,167.78 1101.92,175.53Q1108.38,183.28 1108.38,195.40L1108.38,277.54L1086.82,277.54L1086.82,197.18Q1086.82,191.88 1084.37,188.85Q1081.92,185.82 1077.42,185.82Q1068.60,185.82 1068.60,197.18L1068.60,277.54L1049.00,277.54L1049.00,197.18Q1049.00,191.88 1046.73,188.85Q1044.50,185.82 1040.18,185.82Q1030.78,185.82 1030.78,197.18L1030.78,277.54L1009.22,277.54Z" fill="#0d1117"/>
  <rect x="1139.7" y="134.5" width="113.7" height="145.9" rx="6" fill="#179a55"/>
</svg>